<?xml version="1.0" encoding="utf-8"?>
<!-- Generator: Adobe Illustrator 16.0.0, SVG Export Plug-In . SVG Version: 6.00 Build 0)  -->
<!DOCTYPE svg PUBLIC "-//W3C//DTD SVG 1.1//EN" "http://www.w3.org/Graphics/SVG/1.1/DTD/svg11.dtd">
<svg version="1.1" id="Layer_1" xmlns="http://www.w3.org/2000/svg" xmlns:xlink="http://www.w3.org/1999/xlink" x="0px" y="0px"
	 width="673.466px" height="778.461px" viewBox="0 0 673.466 778.461" enable-background="new 0 0 673.466 778.461"
	 xml:space="preserve">
<path fill="#191817" d="M282.711,755.889L230.62,610.391c0,0-222.738-70.055-208.368-307.162c0,0,7.185-287.404,335.903-283.812
	c0,0,283.812,5.389,294.589,314.348c0,0,14.369,228.127-256.867,287.403L282.711,755.889z"/>
<g>
	<path fill="#F2D8BB" d="M401.037,128.99l-55.685,79.036H86.689c0,0-61.073,114.961-8.981,222.738
		c0,0,39.518,122.146,210.164,158.071c0,0-10.778,10.778-37.722,10.778l39.518,104.184l95.202-113.165
		c0,0,208.367-43.11,229.924-226.33c0,0,17.962-86.222-34.13-156.276H436.961L401.037,128.99z"/>
	<polygon fill="#FFFFFF" points="323.2,73.306 283.683,73.306 232.187,125.998 260.927,125.998 220.216,175.335 311.461,175.335 
		372.295,93.665 301.884,93.665 	"/>
	<path fill="#1A1918" d="M508.813,227.785H404.629c-31.744,0-57.48,25.734-57.48,57.481v15.268h-26.046v-15.268
		c0-31.747-25.737-57.481-57.481-57.481H159.438c-31.743,0-57.48,25.734-57.48,57.481v77.239c0,31.747,25.737,57.481,57.48,57.481
		h104.184c31.744,0,57.481-25.734,57.481-57.481v-28.74h26.046v28.74c0,31.747,25.736,57.481,57.48,57.481h104.184
		c31.743,0,57.48-25.734,57.48-57.481v-77.239C566.293,253.519,540.556,227.785,508.813,227.785z"/>
	<path fill="#1A1918" d="M383.706,450.53c-42.128,37.252-91.035,9.375-93.098,8.168c-3.41-2.007-7.816-0.87-9.823,2.543
		c-2.021,3.417-0.884,7.824,2.54,9.841c0.358,0.211,22.362,12.887,50.801,12.887c18.384,0,39.455-5.298,59.094-22.675
		c2.976-2.628,3.256-7.171,0.625-10.143C391.213,448.166,386.667,447.906,383.706,450.53z"/>
	<polygon fill="#D0E5FB" points="289.521,305.744 181.905,394.838 202.619,394.838 289.521,322.093 	"/>
	<path fill="#D0E5FB" d="M289.521,340.834l-64.512,54.004h21.401c23.808,0,43.111-19.303,43.111-43.11V340.834z"/>
	<path fill="#D0E5FB" d="M246.41,252.933h-70.055c-23.808,0-43.11,19.303-43.11,43.11v55.685c0,14.668,7.347,27.61,18.538,35.396
		L284.974,276.86C277.908,262.69,263.313,252.933,246.41,252.933z"/>
	<path fill="#D0E5FB" d="M491.454,252.933h-70.055c-23.814,0-43.11,19.303-43.11,43.11v55.685c0,13.363,6.076,25.302,15.626,33.21
		l134.552-110.906C520.945,261.413,507.206,252.933,491.454,252.933z"/>
	<path fill="#D0E5FB" d="M491.454,394.838c23.801,0,43.11-19.303,43.11-43.11v-15.282l-70.687,58.393H491.454z"/>
	<polygon fill="#D0E5FB" points="534.564,301.604 421.448,394.838 441.319,394.838 534.564,317.806 	"/>
	<path fill="#FFFFFF" d="M289.521,296.043c0-6.901-1.663-13.402-4.547-19.184L151.783,387.124c6.975,4.852,15.43,7.715,24.572,7.715
		h5.55l107.615-89.094V296.043z"/>
	<polygon fill="#FFFFFF" points="289.521,322.093 202.619,394.838 225.009,394.838 289.521,340.834 	"/>
	<path fill="#FFFFFF" d="M534.564,296.043c0-8.052-2.253-15.563-6.098-22.011L393.915,384.938c7.459,6.182,17.037,9.9,27.484,9.9
		h0.049l113.116-93.234V296.043z"/>
	<polygon fill="#FFFFFF" points="441.319,394.838 463.877,394.838 534.564,336.446 534.564,317.806 	"/>
</g>
</svg>
